# xmcd
#
# Track frame offsets: 
#        150
#        18625
#        38722
#        67990
#        84407
#        102470
#        117287
#        131627
#        147735
#        174200
#
# Disc length: 2533 seconds
#
# Revision: 0
# Processed by: cddbd v1.5.2PL0 Copyright (c) Steve Scherf et al.
# Submitted via: ExactAudioCopy v0.95b3
#
DISCID=8709e30a
DTITLE=Nils Lofgren - Nils Lofgren
DYEAR=1979
DGENRE=Rock
TTITLE0=No Mercy
TTITLE1=I'll Cry Tomorrow
TTITLE2=Baltimore
TTITLE3=Shine Silently
TTITLE4=Steal Away
TTITLE5=Kool Skool
TTITLE6=A Fool Like Me
TTITLE7=I Found Her
TTITLE8=You're So Easy
TTITLE9=This Life Holds Something For Me
EXTD=
EXTT0=
EXTT1=
EXTT2=
EXTT3=
EXTT4=
EXTT5=
EXTT6=
EXTT7=
EXTT8=
EXTT9=
PLAYORDER=
